PathFileType	4	(X/Y/Z)	Patient4_TMGait_0pt8_01_left_46.trc.trc
DataRate	CameraRate	NumFrames	NumMarkers	Units	OrigDataRate	OrigDataStartFrame	OrigNumFrames
89.171974522293	89.171974522293	4	33	mm	89.171974522293	18	       141
Frame#	Time	Sacral			L.Shoulder			Chest			R.Shoulder			Neck			R.ASIS			L.ASIS			R.Thigh.Superior			R.Thigh.Lateral			R.Thigh.Inferior			R.Patella			L.Thigh.Superior			L.Thigh.Lateral			L.Thigh.Inferior			L.Patella			L.Shank.Superior			L.Shank.Lateral			L.Shank.Inferior			R.Shank.Superior			R.Shank.Lateral			R.Shank.Inferior			R.Heel			R.Midfoot.Superior			R.Midfoot.Lateral			R.Toe			L.Heel			L.Midfoot.Lateral			L.Midfoot.Superior			L.Toe			L.Elbow			L.Wrist			R.Elbow			R.Wrist			
		X1	Y1	Z1	X2	Y2	Z2	X3	Y3	Z3	X4	Y4	Z4	X5	Y5	Z5	X6	Y6	Z6	X7	Y7	Z7	X8	Y8	Z8	X9	Y9	Z9	X10	Y10	Z10	X11	Y11	Z11	X12	Y12	Z12	X13	Y13	Z13	X14	Y14	Z14	X15	Y15	Z15	X16	Y16	Z16	X17	Y17	Z17	X18	Y18	Z18	X19	Y19	Z19	X20	Y20	Z20	X21	Y21	Z21	X22	Y22	Z22	X23	Y23	Z23	X24	Y24	Z24	X25	Y25	Z25	X26	Y26	Z26	X27	Y27	Z27	X28	Y28	Z28	X29	Y29	Z29	X30	Y30	Z30	X31	Y31	Z31	X32	Y32	Z32	X33	Y33	Z33	

18	51.400642857143	877.147820853227	1003.919011914590	535.416032396492	1037.739005171854	1434.235707930411	364.208799578434	1155.130198340934	1357.291434248087	512.826674272293	1088.873087061832	1422.584760364459	695.460804367992	1034.769713644078	1488.364567776046	525.911970830367	1102.469101712307	935.558223222256	646.251800370913	1084.138060954341	955.187583404994	370.331852213446	1096.254565023772	723.214781550962	618.617343141113	985.932400594310	630.449688460513	672.716770830602	1049.392024379089	565.398695123802	595.805537286623	1028.194259959725	481.081966652001	598.817005110081	1159.048771836046	779.306060657204	392.137514548600	1117.865210504155	648.827810007944	307.763758329481	1229.751341301391	598.206716742939	362.062430358143	1263.022161231104	538.174118979746	355.815364771677	1254.095547018195	465.889115602582	347.992191339816	1201.324063301930	328.795167452085	300.946673446729	1303.421364040574	241.462189476428	349.540854778397	989.172885625949	397.191757295962	600.795096188481	900.140148889507	301.762906950101	653.516072752518	936.303250478412	204.334353877529	589.750847732369	789.920913798562	44.421725251536	545.003015446004	961.745162630770	97.621057925193	589.573783378023	870.321607291046	37.184743717248	622.229574046491	1078.947178881928	42.198488800046	619.689070193014	1245.722508961107	51.462292791428	390.716492814001	1316.828623839229	64.933834126521	308.866116392944	1376.543809821240	152.855697766575	326.819785563190	1513.235541637990	140.482826796121	298.204279878555	885.257086574651	1118.981905841840	267.367876195194	807.519286580723	872.389821420718	276.922072606004	1282.454926150282	1142.741609117602	774.743251922523	1505.925834639382	1247.891299788685	708.380530218526	
19	51.411857142857	877.489964724007	1002.688088607918	533.671536700941	1037.602630003243	1432.919307559779	362.395199040799	1154.958250289421	1356.138978002413	511.135390217061	1088.424550399431	1421.831691417523	693.441441298347	1034.286292458203	1487.114888186482	523.790260393685	1102.186313358127	934.088463751112	645.087198292631	1084.898324378455	953.704828257708	369.008923371550	1094.773888257338	721.454295091709	617.775634465003	983.615522695584	629.472669787178	671.807443351901	1046.569247014997	563.797294056197	594.944771125105	1024.536927560866	479.449078419132	597.774432752943	1159.947823655653	777.972377761845	392.157373152611	1118.603525570053	646.809570839337	308.960351604313	1230.164392724275	596.419016739807	363.354718155089	1262.815083361634	535.654820442252	357.782024967021	1253.299015069983	462.770173202173	350.271310643534	1199.080978104035	326.094449670321	304.114617534869	1299.992791871636	238.036996750920	353.422988943679	984.619643686252	395.922026261264	599.968502375842	894.653954909786	301.589281525905	653.102159027743	929.179210472434	203.704792422722	589.217134724758	781.029948417483	44.845204947607	545.013431540031	952.918132358595	97.471864618261	589.465230978411	861.388692500155	37.310348579954	622.205322504191	1070.001585680448	41.679099614539	619.806314614247	1240.483255403037	49.153354683250	395.545158907078	1311.307988095891	61.839213559122	313.400645355753	1372.018570384828	148.844811305696	331.163851684503	1508.320402201829	134.924152243005	301.961153778017	880.397549335025	1120.861162068349	266.072515931961	799.377396560804	875.275511405055	276.578622635189	1285.544039951951	1146.315054141650	773.849661489977	1501.978371986299	1262.146857018835	704.787839867632	
20	51.423071428571	877.991302215807	1001.327243550303	531.711349890578	1037.430444573662	1431.538508037153	360.473426539381	1154.763019902674	1355.012817809194	509.335774048800	1087.900228086214	1421.021921099744	691.351702506872	1033.802492738811	1485.807027922035	521.598910493842	1102.088005660561	932.571137890648	643.807698067260	1085.894560957038	952.196520272186	367.565560212805	1093.625107684340	719.669846926096	616.869883758882	981.635695600790	628.438657456234	670.776470053928	1044.174417163983	562.119251912789	594.055169051030	1021.273295896258	477.696049619305	596.660605940462	1161.195045637804	776.512641859627	392.159497019763	1119.522868933944	644.704666001152	310.258758062895	1230.601089394434	594.373371134998	364.923515958544	1262.376463132702	532.591713654203	360.049091603874	1252.052767480123	459.088056945077	352.707663774124	1195.821123374211	323.085391915039	307.344146418299	1295.075037115341	233.841704247013	357.501897036532	980.380143659009	394.560492712014	599.076260595658	889.405849693571	301.451624887472	652.629196781248	922.198572057109	203.075095663030	588.685919450086	772.169110769059	45.404403101115	545.066220193108	944.131128790390	97.337343165359	589.373445961120	852.486135928084	37.492333446630	622.208297321497	1061.072278387849	41.118749222407	619.937464393657	1232.694891995593	46.625702594919	400.292676093468	1303.436873034528	58.158048762775	317.976053562149	1365.673621271400	143.699972621675	335.838509861238	1501.503575951047	127.301119721696	306.243903569508	876.208611496138	1122.357910136721	264.648093881432	792.530150984568	877.576991854790	275.900148068499	1288.078135543075	1149.495520656339	773.195721556134	1497.389214761755	1274.847804707104	701.598919467610	
21	51.434285714286	878.645471526841	999.870850300100	529.543290052692	1037.254562480317	1430.105817142402	358.438732796136	1154.557253170153	1353.936051547741	507.444937712382	1087.296485128144	1420.169398811697	689.214391986179	1033.340027055679	1484.465653461090	519.350448130182	1102.185728849260	931.021034157343	642.412374008655	1087.114430756396	950.686638886107	366.022895779930	1092.787701714945	717.872670838492	615.903032799199	979.952875471483	627.374660196663	669.618880652544	1042.166193547377	560.383722425353	593.139976032099	1018.365155841103	475.833732115692	595.488522473995	1162.699245080458	774.859110001368	392.142990396759	1120.466911813231	642.513792269616	311.584195681274	1230.929465432437	592.047051253809	366.703869995591	1261.587378656786	529.049023461360	362.552337019929	1250.336378542555	454.990497148521	355.205810348076	1191.762969784520	319.839068146189	310.498111638492	1289.041805581857	229.114677737730	361.615773086945	976.402084038981	393.133514831573	598.123462064190	884.346506168653	301.379957532437	652.105683592871	915.330925773212	202.476256644843	588.180483622323	763.331342663996	46.128691315146	545.177846608764	935.380608084939	97.233487854360	589.312437336914	843.610259971339	37.745829917281	622.255648875308	1052.152449632472	40.538661053619	620.077714373885	1222.976934750454	44.069454216073	404.733538714790	1293.868538224658	54.149729534975	322.404777899388	1358.052941910857	137.727678241479	340.698797227733	1493.348825517534	118.058629508098	310.994193388851	872.778324863259	1123.394077989365	263.081899492513	786.999813717716	879.236776588016	274.874883552712	1290.029581007187	1152.205493323502	772.778908839659	1492.268854197335	1285.978826336019	698.802281016415	
